<?xml version="1.0" encoding="iso-8859-1"?>
<!-- Generator: Adobe Illustrator 19.0.0, SVG Export Plug-In . SVG Version: 6.00 Build 0)  -->
<svg xmlns="http://www.w3.org/2000/svg" xmlns:xlink="http://www.w3.org/1999/xlink" version="1.1" id="Capa_1" x="0px" y="0px" viewBox="0 0 490.667 490.667" style="enable-background:new 0 0 490.667 490.667;" xml:space="preserve" width="512px" height="512px">
<g>
	<g>
		<path d="M245.333,0C110.059,0,0,110.059,0,245.333s110.059,245.333,245.333,245.333s245.333-110.059,245.333-245.333    S380.608,0,245.333,0z M245.333,469.333c-123.52,0-224-100.48-224-224s100.48-224,224-224s224,100.48,224,224    S368.853,469.333,245.333,469.333z" fill="#FFFFFF"/>
	</g>
</g>
<g>
	<g>
		<path d="M245.333,192C215.936,192,192,215.936,192,245.333s23.936,53.333,53.333,53.333s53.333-23.936,53.333-53.333    S274.731,192,245.333,192z M245.333,277.333c-17.643,0-32-14.357-32-32s14.357-32,32-32s32,14.357,32,32    S262.976,277.333,245.333,277.333z" fill="#FFFFFF"/>
	</g>
</g>
<g>
	<g>
		<path d="M296.875,132.757l-42.667-64c-3.968-5.931-13.781-5.931-17.749,0l-42.667,64c-2.176,3.264-2.389,7.488-0.533,10.944    c1.856,3.456,5.461,5.632,9.408,5.632H288c3.947,0,7.552-2.176,9.408-5.632C299.264,140.245,299.051,136.021,296.875,132.757z     M222.592,128l22.741-34.112L268.075,128H222.592z" fill="#FFFFFF"/>
	</g>
</g>
<g>
	<g>
		<path d="M297.408,346.965c-1.856-3.456-5.461-5.632-9.408-5.632h-85.333c-3.947,0-7.552,2.176-9.408,5.632    s-1.643,7.68,0.533,10.944l42.667,64c1.984,2.987,5.312,4.757,8.875,4.757s6.891-1.771,8.875-4.757l42.667-64    C299.051,354.645,299.264,350.421,297.408,346.965z M245.333,396.779l-22.741-34.112h45.483L245.333,396.779z" fill="#FFFFFF"/>
	</g>
</g>
<g>
</g>
<g>
</g>
<g>
</g>
<g>
</g>
<g>
</g>
<g>
</g>
<g>
</g>
<g>
</g>
<g>
</g>
<g>
</g>
<g>
</g>
<g>
</g>
<g>
</g>
<g>
</g>
<g>
</g>
</svg>
