<svg xmlns="http://www.w3.org/2000/svg" viewBox="0 0 511 511" width="512" height="512"><g fill="#cf5a40"><path d="M503.5 160H439v-.5c0-12.958-10.542-23.5-23.5-23.5S392 146.542 392 159.5v.5h-64.5a7.5 7.5 0 0 0 0 15H384v8.5c0 .168.01.333.013.5H126.987c.003-.167.013-.332.013-.5V175h56.5a7.5 7.5 0 0 0 0-15H119v-.5c0-12.958-10.542-23.5-23.5-23.5S72 146.542 72 159.5v.5H7.5a7.5 7.5 0 0 0 0 15H64v8.5c0 17.369 14.131 31.5 31.5 31.5 11.737 0 21.987-6.457 27.406-16h47.188l6.997 20.991A39.45 39.45 0 0 0 214.564 247H248v17h-40.5c-17.369 0-31.5 14.131-31.5 31.5v48c0 17.369 14.131 31.5 31.5 31.5h96c17.369 0 31.5-14.131 31.5-31.5v-48c0-17.369-14.131-31.5-31.5-31.5H263v-17h33.436a39.45 39.45 0 0 0 37.473-27.009L340.906 199h47.188c5.419 9.543 15.669 16 27.406 16 17.369 0 31.5-14.131 31.5-31.5V175h56.5a7.5 7.5 0 0 0 0-15zM87 159.5c0-4.687 3.813-8.5 8.5-8.5s8.5 3.813 8.5 8.5v.5H87v-.5zm8.5 40.5c-9.098 0-16.5-7.402-16.5-16.5V175h33v8.5c0 9.098-7.402 16.5-16.5 16.5zM320 295.5v48c0 9.098-7.402 16.5-16.5 16.5h-96c-9.098 0-16.5-7.402-16.5-16.5v-48c0-9.098 7.402-16.5 16.5-16.5h96c9.098 0 16.5 7.402 16.5 16.5zm-.322-80.252A24.468 24.468 0 0 1 296.435 232h-81.871a24.468 24.468 0 0 1-23.243-16.752L185.906 199h139.188l-5.416 16.248zM407 159.5c0-4.687 3.813-8.5 8.5-8.5s8.5 3.813 8.5 8.5v.5h-17v-.5zm25 24c0 9.098-7.402 16.5-16.5 16.5s-16.5-7.402-16.5-16.5V175h33v8.5z"/><path d="M231.5 288c-17.369 0-31.5 14.131-31.5 31.5s14.131 31.5 31.5 31.5 31.5-14.131 31.5-31.5-14.131-31.5-31.5-31.5zm0 48c-9.098 0-16.5-7.402-16.5-16.5s7.402-16.5 16.5-16.5 16.5 7.402 16.5 16.5-7.402 16.5-16.5 16.5zm56-33h8a7.5 7.5 0 0 0 0-15h-8a7.5 7.5 0 0 0 0 15z"/><path d="M231.5 312c-1.97 0-3.91.8-5.3 2.2-1.4 1.39-2.2 3.33-2.2 5.3s.8 3.91 2.2 5.3c1.39 1.4 3.33 2.2 5.3 2.2 1.97 0 3.91-.8 5.3-2.2 1.4-1.39 2.2-3.33 2.2-5.3s-.8-3.91-2.2-5.3a7.528 7.528 0 0 0-5.3-2.2z"/></g></svg>