<svg xmlns="http://www.w3.org/2000/svg" viewBox="0 0 511 511" width="512" height="512"><g fill="#cf5a40"><path d="M436.166 74.834C387.908 26.577 323.747 0 255.5 0S123.092 26.577 74.834 74.834C26.577 123.092 0 187.253 0 255.5s26.577 132.408 74.834 180.666C123.092 484.423 187.253 511 255.5 511s132.408-26.577 180.666-74.834C484.423 387.908 511 323.747 511 255.5s-26.577-132.408-74.834-180.666zm-10.607 350.725C380.135 470.984 319.74 496 255.5 496s-124.635-25.016-170.059-70.441C40.016 380.135 15 319.74 15 255.5S40.016 130.865 85.441 85.441C130.865 40.016 191.26 15 255.5 15s124.635 25.016 170.059 70.441C470.984 130.865 496 191.26 496 255.5s-25.016 124.635-70.441 170.059z"/><path d="M415.276 104.461c-6.267-4.941-14.912-4.431-20.556 1.212L278.551 221.842c-.051.049-.101.1-.151.15l-6.573 6.573c-12.115-7.343-28.147-5.794-38.602 4.66-10.455 10.454-12.004 26.487-4.66 38.602l-3.815 3.815-41.687-8.337c-9.619-1.923-19.521 2.403-24.645 10.764L92.104 386.267c-4.17 6.805-2.648 15.33 3.619 20.271 2.879 2.27 6.26 3.39 9.622 3.39 3.955 0 7.884-1.551 10.935-4.602l116.169-116.169c.051-.049.101-.1.151-.15l6.573-6.573a31.495 31.495 0 0 0 16.328 4.551c8.066 0 16.133-3.07 22.274-9.211 10.455-10.454 12.004-26.487 4.66-38.602l3.815-3.815 41.687 8.337c9.617 1.921 19.521-2.403 24.645-10.764l66.315-108.198c4.169-6.804 2.647-15.329-3.621-20.271zM105.673 394.72c-.163.163-.274.227-.263.231-.214-.003-.627-.329-.677-.495.004-.031.04-.154.161-.351l66.315-108.198a8.54 8.54 0 0 1 7.262-4.057c.548 0 1.102.053 1.652.164l31.881 6.376-106.331 106.33zm161.494-127.553c-6.434 6.434-16.901 6.434-23.335 0-6.433-6.434-6.433-16.901 0-23.335 3.217-3.217 7.442-4.825 11.667-4.825s8.451 1.608 11.667 4.825c6.435 6.434 6.435 16.902.001 23.335zm138.939-150.272l-66.315 108.198a8.531 8.531 0 0 1-8.914 3.893l-31.881-6.376 106.33-106.33c.163-.163.274-.227.263-.231.214.003.627.329.677.495-.003.031-.039.154-.16.351z"/><path d="M255.5 248c-1.97 0-3.91.8-5.3 2.2a7.528 7.528 0 0 0-2.2 5.3c0 1.97.8 3.91 2.2 5.3 1.39 1.4 3.33 2.2 5.3 2.2 1.97 0 3.91-.8 5.3-2.2 1.4-1.39 2.2-3.33 2.2-5.3 0-1.97-.8-3.91-2.2-5.3a7.528 7.528 0 0 0-5.3-2.2z"/></g></svg>