<svg xmlns="http://www.w3.org/2000/svg" viewBox="0 0 511 511" width="512" height="512"><g fill="#cf5a40"><path d="M343.5 144h-28.396l-24.944-31.18a23.386 23.386 0 0 0-11.16-7.694V103.5c0-10.336-6.71-19.128-16-22.266V7.5a7.5 7.5 0 0 0-15 0v73.734c-9.29 3.138-16 11.93-16 22.266v1.625a23.388 23.388 0 0 0-11.16 7.694L195.896 144H167.5C110.43 144 64 190.43 64 247.5v160C64 464.57 110.43 511 167.5 511h176c57.07 0 103.5-46.43 103.5-103.5v-160c0-57.07-46.43-103.5-103.5-103.5zm-88-49c4.687 0 8.5 3.813 8.5 8.5v.5h-17v-.5c0-4.687 3.813-8.5 8.5-8.5zm-22.947 27.19a8.46 8.46 0 0 1 6.637-3.19h32.62a8.46 8.46 0 0 1 6.637 3.19l25.25 31.563c-.99 3.597-4.29 6.248-8.197 6.248h-80c-3.907 0-7.208-2.65-8.197-6.248l25.25-31.563zM432 407.5c0 48.799-39.701 88.5-88.5 88.5h-176c-48.799 0-88.5-39.701-88.5-88.5v-160c0-48.799 39.701-88.5 88.5-88.5h25.734c3.138 9.29 11.93 16 22.266 16h80c10.336 0 19.128-6.71 22.266-16H343.5c48.799 0 88.5 39.701 88.5 88.5v160z"/><path d="M167.5 224c-30.603 0-55.5 24.897-55.5 55.5s24.897 55.5 55.5 55.5 55.5-24.897 55.5-55.5-24.897-55.5-55.5-55.5zm0 96c-22.332 0-40.5-18.168-40.5-40.5s18.168-40.5 40.5-40.5 40.5 18.168 40.5 40.5-18.168 40.5-40.5 40.5zm176-96c-30.603 0-55.5 24.897-55.5 55.5s24.897 55.5 55.5 55.5 55.5-24.897 55.5-55.5-24.897-55.5-55.5-55.5zm0 96c-22.332 0-40.5-18.168-40.5-40.5s18.168-40.5 40.5-40.5 40.5 18.168 40.5 40.5-18.168 40.5-40.5 40.5z"/><path d="M183.5 272a7.5 7.5 0 0 0-7.5 7.5c0 4.687-3.813 8.5-8.5 8.5s-8.5-3.813-8.5-8.5 3.813-8.5 8.5-8.5a7.5 7.5 0 0 0 0-15c-12.958 0-23.5 10.542-23.5 23.5s10.542 23.5 23.5 23.5 23.5-10.542 23.5-23.5a7.5 7.5 0 0 0-7.5-7.5zm176 0a7.5 7.5 0 0 0-7.5 7.5c0 4.687-3.813 8.5-8.5 8.5s-8.5-3.813-8.5-8.5 3.813-8.5 8.5-8.5a7.5 7.5 0 0 0 0-15c-12.958 0-23.5 10.542-23.5 23.5s10.542 23.5 23.5 23.5 23.5-10.542 23.5-23.5a7.5 7.5 0 0 0-7.5-7.5zm-104 24a7.5 7.5 0 0 0-7.5 7.5v8a7.5 7.5 0 0 0 15 0v-8a7.5 7.5 0 0 0-7.5-7.5zm0 32a7.5 7.5 0 0 0-7.5 7.5v8a7.5 7.5 0 0 0 15 0v-8a7.5 7.5 0 0 0-7.5-7.5zm-128-113c1.97 0 3.91-.8 5.3-2.2 1.4-1.39 2.2-3.33 2.2-5.3 0-1.97-.8-3.91-2.2-5.3a7.528 7.528 0 0 0-5.3-2.2c-1.97 0-3.91.8-5.3 2.2a7.528 7.528 0 0 0-2.2 5.3c0 1.97.8 3.91 2.2 5.3 1.39 1.4 3.33 2.2 5.3 2.2zm256 0c1.97 0 3.91-.8 5.3-2.2 1.4-1.39 2.2-3.33 2.2-5.3 0-1.97-.8-3.91-2.2-5.3a7.528 7.528 0 0 0-5.3-2.2c-1.97 0-3.91.8-5.3 2.2a7.528 7.528 0 0 0-2.2 5.3c0 1.97.8 3.91 2.2 5.3 1.39 1.4 3.33 2.2 5.3 2.2zm-200 161h-32c-12.958 0-23.5 10.542-23.5 23.5s10.542 23.5 23.5 23.5h32c12.958 0 23.5-10.542 23.5-23.5S196.458 376 183.5 376zM143 399.5c0-4.687 3.813-8.5 8.5-8.5h8.5v17h-8.5c-4.687 0-8.5-3.813-8.5-8.5zm40.5 8.5H175v-17h8.5c4.687 0 8.5 3.813 8.5 8.5s-3.813 8.5-8.5 8.5z"/></g></svg>