<svg xmlns="http://www.w3.org/2000/svg" viewBox="0 0 511 511" width="512" height="512"><g fill="#cf5a40"><path d="M391.5 272c-19.224 0-37.399 4.57-53.506 12.67 3.237-9.128 5.006-18.946 5.006-29.17s-1.769-20.042-5.006-29.17c16.107 8.1 34.281 12.67 53.506 12.67 65.893 0 119.5-53.607 119.5-119.5S457.393 0 391.5 0 272 53.607 272 119.5c0 19.225 4.57 37.399 12.67 53.506-9.128-3.237-18.946-5.006-29.17-5.006s-20.042 1.769-29.17 5.006C234.43 156.9 239 138.725 239 119.5 239 53.607 185.393 0 119.5 0S0 53.607 0 119.5 53.607 239 119.5 239c19.224 0 37.399-4.57 53.506-12.67-3.237 9.128-5.006 18.946-5.006 29.17s1.769 20.042 5.006 29.17C156.899 276.57 138.724 272 119.5 272 53.607 272 0 325.607 0 391.5S53.607 511 119.5 511 239 457.393 239 391.5c0-19.225-4.57-37.399-12.67-53.506 9.128 3.237 18.946 5.006 29.17 5.006s20.042-1.769 29.17-5.006C276.57 354.101 272 372.275 272 391.5c0 65.893 53.607 119.5 119.5 119.5S511 457.393 511 391.5 457.393 272 391.5 272zm0-257C449.122 15 496 61.878 496 119.5S449.122 224 391.5 224c-26.117 0-50.028-9.631-68.366-25.528l57.917-57.917c3.207 1.595 6.762 2.445 10.449 2.445s7.241-.85 10.449-2.445l40.817 40.817c1.464 1.464 3.384 2.196 5.303 2.196s3.839-.732 5.303-2.196a7.5 7.5 0 0 0 0-10.606l-40.817-40.817A23.405 23.405 0 0 0 415 119.5a23.348 23.348 0 0 0-6.883-16.617A23.344 23.344 0 0 0 391.5 96c-3.687 0-7.241.85-10.449 2.445l-40.817-40.817a7.5 7.5 0 0 0-10.606 0 7.5 7.5 0 0 0 0 10.606l40.817 40.817C368.85 112.259 368 115.813 368 119.5s.85 7.241 2.445 10.449l-57.917 57.917C296.631 169.527 287 145.617 287 119.5 287 61.878 333.878 15 391.5 15zm0 96a8.44 8.44 0 0 1 6.01 2.49c1.605 1.605 2.49 3.74 2.49 6.01s-.884 4.405-2.49 6.011c-1.605 1.605-3.74 2.489-6.01 2.489s-4.405-.884-6.01-2.489c-1.605-1.605-2.49-3.74-2.49-6.01s.884-4.405 2.49-6.011a8.44 8.44 0 0 1 6.01-2.49zM15 119.5C15 61.878 61.878 15 119.5 15S224 61.878 224 119.5c0 26.117-9.631 50.027-25.528 68.366l-57.917-57.917c1.595-3.208 2.445-6.762 2.445-10.449s-.85-7.241-2.445-10.449l40.817-40.817a7.5 7.5 0 0 0 0-10.606 7.5 7.5 0 0 0-10.606 0L129.95 98.445A23.412 23.412 0 0 0 119.5 96a23.344 23.344 0 0 0-16.617 6.883A23.348 23.348 0 0 0 96 119.5c0 3.687.85 7.241 2.445 10.449l-40.817 40.817a7.5 7.5 0 1 0 10.606 10.606l40.816-40.817c3.207 1.595 6.762 2.445 10.449 2.445s7.241-.85 10.449-2.445l57.917 57.917C169.527 214.369 145.617 224 119.5 224 61.878 224 15 177.122 15 119.5zm104.5 8.5a8.44 8.44 0 0 1-6.01-2.49c-1.605-1.605-2.49-3.74-2.49-6.01s.884-4.405 2.49-6.011c1.605-1.605 3.74-2.489 6.01-2.489s4.405.884 6.01 2.49c1.605 1.605 2.49 3.74 2.49 6.01s-.884 4.405-2.49 6.01a8.44 8.44 0 0 1-6.01 2.49zm0 368C61.878 496 15 449.122 15 391.5S61.878 287 119.5 287c26.117 0 50.027 9.631 68.366 25.528l-57.917 57.917C126.741 368.85 123.187 368 119.5 368s-7.241.85-10.449 2.445l-40.816-40.817a7.5 7.5 0 0 0-10.606 0 7.5 7.5 0 0 0 0 10.606l40.817 40.817A23.392 23.392 0 0 0 96 391.5a23.348 23.348 0 0 0 6.883 16.617A23.346 23.346 0 0 0 119.5 415c3.687 0 7.241-.85 10.449-2.445l40.816 40.817c1.464 1.464 3.384 2.196 5.303 2.196s3.839-.732 5.303-2.196a7.5 7.5 0 0 0 0-10.606l-40.817-40.817c1.595-3.208 2.445-6.762 2.445-10.449s-.85-7.241-2.445-10.449l57.917-57.917C214.369 341.473 224 365.383 224 391.5c0 57.622-46.878 104.5-104.5 104.5zm0-96a8.44 8.44 0 0 1-6.01-2.49c-1.605-1.605-2.49-3.74-2.49-6.01s.884-4.405 2.49-6.011c1.605-1.605 3.74-2.489 6.01-2.489s4.405.884 6.01 2.489c1.605 1.605 2.49 3.74 2.49 6.01s-.884 4.405-2.49 6.011a8.44 8.44 0 0 1-6.01 2.49zM183 255.5c0-39.977 32.523-72.5 72.5-72.5s72.5 32.523 72.5 72.5-32.523 72.5-72.5 72.5-72.5-32.523-72.5-72.5zM391.5 496C333.878 496 287 449.122 287 391.5c0-26.117 9.631-50.027 25.528-68.366l57.917 57.917C368.85 384.259 368 387.813 368 391.5s.85 7.241 2.445 10.449l-40.817 40.817a7.5 7.5 0 1 0 10.606 10.606l40.817-40.817A23.401 23.401 0 0 0 391.5 415a23.344 23.344 0 0 0 16.617-6.883A23.348 23.348 0 0 0 415 391.5c0-3.687-.85-7.241-2.445-10.449l40.817-40.817a7.5 7.5 0 0 0 0-10.606 7.5 7.5 0 0 0-10.606 0l-40.817 40.817C398.741 368.85 395.187 368 391.5 368s-7.241.85-10.449 2.445l-57.917-57.917C341.472 296.631 365.383 287 391.5 287c57.622 0 104.5 46.878 104.5 104.5S449.122 496 391.5 496zm0-113a8.44 8.44 0 0 1 6.01 2.49c1.605 1.605 2.49 3.74 2.49 6.01s-.884 4.405-2.49 6.011c-1.605 1.605-3.74 2.489-6.01 2.489s-4.405-.884-6.01-2.49c-1.605-1.605-2.49-3.74-2.49-6.01s.884-4.405 2.49-6.01a8.44 8.44 0 0 1 6.01-2.49z"/><path d="M301.743 224.801a7.5 7.5 0 0 0-10.398-2.092 7.5 7.5 0 0 0-2.092 10.398c4.414 6.638 6.748 14.381 6.748 22.393 0 22.332-18.168 40.5-40.5 40.5S215 277.832 215 255.5s18.168-40.5 40.5-40.5c4.621 0 9.149.77 13.459 2.288a7.5 7.5 0 0 0 9.566-4.583 7.5 7.5 0 0 0-4.583-9.565 55.388 55.388 0 0 0-18.443-3.14c-30.603 0-55.5 24.897-55.5 55.5s24.897 55.5 55.5 55.5 55.5-24.897 55.5-55.5c.001-10.977-3.2-21.592-9.256-30.699z"/></g></svg>