<svg xmlns="http://www.w3.org/2000/svg" viewBox="0 0 490.667 490.667" width="512" height="512"><path d="M245.333 0C110.059 0 0 110.059 0 245.333s110.059 245.333 245.333 245.333 245.333-110.059 245.333-245.333S380.608 0 245.333 0zm0 469.333c-123.52 0-224-100.48-224-224s100.48-224 224-224 224 100.48 224 224-100.48 224-224 224z" fill="#FFF"/><path d="M245.333 192C215.936 192 192 215.936 192 245.333s23.936 53.333 53.333 53.333 53.333-23.936 53.333-53.333S274.731 192 245.333 192zm0 85.333c-17.643 0-32-14.357-32-32s14.357-32 32-32 32 14.357 32 32-14.357 32-32 32zm51.542-144.576l-42.667-64c-3.968-5.931-13.781-5.931-17.749 0l-42.667 64a10.67 10.67 0 0 0-.533 10.944 10.68 10.68 0 0 0 9.408 5.632H288a10.68 10.68 0 0 0 9.408-5.632 10.67 10.67 0 0 0-.533-10.944zM222.592 128l22.741-34.112L268.075 128h-45.483zm74.816 218.965a10.68 10.68 0 0 0-9.408-5.632h-85.333c-3.947 0-7.552 2.176-9.408 5.632s-1.643 7.68.533 10.944l42.667 64c1.984 2.987 5.312 4.757 8.875 4.757s6.891-1.771 8.875-4.757l42.667-64a10.673 10.673 0 0 0 .532-10.944zm-52.075 49.814l-22.741-34.112h45.483l-22.742 34.112z" fill="#FFF"/></svg>